<?xml version="1.0" encoding="UTF-8" standalone="no"?>
<!-- Created with Inkscape (http://www.inkscape.org/) -->

<svg
   inkscape:version="1.2.2 (b0a8486541, 2022-12-01)"
   width="21.273142mm"
   height="23.747141mm"
   viewBox="0 0 21.27314 23.747141"
   version="1.1"
   id="svg8"
   sodipodi:docname="fast-downward_drill.svg"
   inkscape:export-filename="/home/roeger/fast_dowward_logos/fast-downward.png"
   inkscape:export-xdpi="138.09068"
   inkscape:export-ydpi="138.09068"
   xmlns:inkscape="http://www.inkscape.org/namespaces/inkscape"
   xmlns:sodipodi="http://sodipodi.sourceforge.net/DTD/sodipodi-0.dtd"
   xmlns="http://www.w3.org/2000/svg"
   xmlns:svg="http://www.w3.org/2000/svg"
   xmlns:rdf="http://www.w3.org/1999/02/22-rdf-syntax-ns#"
   xmlns:cc="http://creativecommons.org/ns#"
   xmlns:dc="http://purl.org/dc/elements/1.1/">
  <defs
     id="defs2">
    <linearGradient
       id="linearGradient6846"
       inkscape:swatch="solid">
      <stop
         style="stop-color:#1f8fad;stop-opacity:1;"
         offset="0"
         id="stop6844" />
    </linearGradient>
    <inkscape:path-effect
       effect="roughen"
       id="path-effect5728"
       is_visible="true"
       method="segments"
       max_segment_size="6"
       segments="3"
       displace_x="0.1;1"
       displace_y="0.4;1"
       global_randomize="0.6;1"
       handles="retract"
       shift_nodes="true"
       fixed_displacement="false"
       spray_tool_friendly="false"
       lpeversion="0" />
    <inkscape:path-effect
       effect="bspline"
       id="path-effect5726"
       is_visible="true"
       weight="33.333333"
       steps="2"
       helper_size="0"
       apply_no_weight="true"
       apply_with_weight="true"
       only_selected="false"
       lpeversion="0" />
    <inkscape:path-effect
       effect="roughen"
       id="path-effect4965"
       is_visible="true"
       method="segments"
       max_segment_size="1"
       segments="8"
       displace_x="0.1;1"
       displace_y="0.1;1"
       global_randomize="1.2;1"
       handles="retract"
       shift_nodes="true"
       fixed_displacement="false"
       spray_tool_friendly="false"
       lpeversion="0" />
    <inkscape:path-effect
       effect="bspline"
       id="path-effect4938"
       is_visible="true"
       weight="33.333333"
       steps="2"
       helper_size="0"
       apply_no_weight="true"
       apply_with_weight="true"
       only_selected="false"
       lpeversion="0" />
    <inkscape:path-effect
       effect="mirror_symmetry"
       start_point="60.645189,144.34344"
       end_point="60.645189,167.56042"
       center_point="60.645189,155.95193"
       id="path-effect4897-6-4-4"
       is_visible="true"
       mode="free"
       discard_orig_path="false"
       fuse_paths="true"
       oposite_fuse="false"
       lpeversion="0"
       lpesatellites=""
       split_items="false"
       split_open="false"
       link_styles="false" />
    <clipPath
       clipPathUnits="userSpaceOnUse"
       id="clipPath7005">
      <path
         style="display:inline;opacity:0.974;fill:#000000;fill-opacity:1;stroke:#000000;stroke-width:0;stroke-linecap:round;stroke-linejoin:miter;stroke-miterlimit:4;stroke-dasharray:none;stroke-dashoffset:0;stroke-opacity:1;paint-order:stroke markers fill"
         d="m 60.645189,167.56042 c -2.85668,-7.01175 -4.717974,-14.86627 -5.327066,-23.21698 l 5.327066,0.0453 5.327066,-0.0453 c -0.609092,8.35071 -2.470386,16.20523 -5.327066,23.21698 z"
         id="path7007"
         inkscape:connector-curvature="0"
         sodipodi:nodetypes="cc"
         inkscape:original-d="m 60.645189,167.56042 c -2.85668,-7.01175 -4.717974,-14.86627 -5.327066,-23.21698 l 10.728253,0.0913"
         inkscape:path-effect="#path-effect4897-6-4-4"
         transform="matrix(1.0324632,0,0,1.0324632,-1.9687356,-5.0626977)"
         class="UnoptimicedTransforms" />
    </clipPath>
  </defs>
  <sodipodi:namedview
     id="base"
     pagecolor="#ffffff"
     bordercolor="#666666"
     borderopacity="1.0"
     inkscape:pageopacity="0.0"
     inkscape:pageshadow="2"
     inkscape:zoom="2.178244"
     inkscape:cx="-165.27074"
     inkscape:cy="-11.247592"
     inkscape:document-units="mm"
     inkscape:current-layer="g6475"
     showgrid="false"
     showguides="true"
     inkscape:window-width="1920"
     inkscape:window-height="1022"
     inkscape:window-x="0"
     inkscape:window-y="32"
     inkscape:window-maximized="1"
     inkscape:showpageshadow="2"
     inkscape:pagecheckerboard="0"
     inkscape:deskcolor="#d1d1d1" />
  <metadata
     id="metadata5">
    <rdf:RDF>
      <cc:Work
         rdf:about="">
        <dc:format>image/svg+xml</dc:format>
        <dc:type
           rdf:resource="http://purl.org/dc/dcmitype/StillImage" />
      </cc:Work>
    </rdf:RDF>
  </metadata>
  <g
     transform="translate(10.637436,-141.4082)"
     style="display:inline"
     inkscape:label="Stones"
     id="g54921"
     inkscape:groupmode="layer">
    <g
       id="g14134"
       style="fill:#ffffff;fill-opacity:1;stroke:#ffffff;stroke-opacity:1"
       inkscape:export-xdpi="150"
       inkscape:export-ydpi="150"
       transform="translate(-79.544753,-2.93128)">
      <path
         style="display:inline;opacity:1;fill:#ffffff;fill-opacity:1;stroke:#ffffff;stroke-width:0.264583px;stroke-linecap:butt;stroke-linejoin:miter;stroke-opacity:1"
         inkscape:path-effect="#path-effect4938;#path-effect4965"
         inkscape:original-d="m 43.494605,157.51607 c 0.447332,0.57789 0.894381,1.156 1.34116,1.73432 0.223786,-0.15829 0.447594,-0.31655 0.671424,-0.47477 -0.188806,-0.38736 -0.384326,-0.77185 -0.569752,-1.1606 -0.157685,-0.44244 -0.315667,-0.88477 -0.473947,-1.32699 -0.601121,0.10882 -1.20221,0.21782 -1.803268,0.32699 0.278381,0.30012 0.55651,0.60046 0.834383,0.90105 z"
         id="path54913"
         d="m 43.574672,157.63105 0.195009,0.26782 -0.0057,0.12555 0.164813,0.27027 0.208531,0.13862 0.136825,0.12826 0.115086,0.14648 0.25513,0.17614 -0.0035,0.031 0.145026,0.049 0.110916,0.035 0.146025,-0.0161 0.07166,-0.0249 0.05657,0.0116 0.03549,-0.0395 0.03091,-0.17102 0.04296,-0.11697 0.0067,-0.10328 -0.01265,-0.10868 0.03465,-0.1212 -0.09158,-0.18409 -0.05007,-0.10198 -0.08384,-0.14181 -0.08382,-0.13245 -0.04659,-0.16102 -0.06457,-0.1649 -0.0899,-0.20567 -0.01805,-0.0574 -0.0941,-0.11633 -0.06812,-0.14156 -0.132054,-0.16172 -0.124614,-0.15732 -0.181108,-1e-5 -0.161931,-0.0823 -0.139642,-0.036 -0.104125,-9.3e-4 -0.179053,-5.6e-4 -0.240369,0.0907 -0.06306,0.0164 -0.09782,0.0527 -0.02737,0.0856 -0.09963,0.1262 0.01239,0.0612 0.0924,0.18353 0.07639,-0.0685 0.04696,0.30317 0.05036,0.004 0.105593,0.18168 z"
         inkscape:connector-curvature="0"
         transform="matrix(1.3862525,-0.41626118,0.48530505,1.6161858,-66.695034,-75.215686)" />
      <path
         style="display:inline;opacity:1;fill:#ffffff;fill-opacity:1;stroke:#ffffff;stroke-width:0.264583px;stroke-linecap:butt;stroke-linejoin:miter;stroke-opacity:1"
         inkscape:path-effect="#path-effect4938;#path-effect4965"
         inkscape:original-d="m 43.74103,157.76699 c -0.568668,0.43062 -1.137329,0.86126 -1.705975,1.29191 0.758209,-0.17002 1.51645,-0.33989 2.274729,-0.50959 0.186655,-0.37073 0.37319,-0.74153 0.559606,-1.11238 -0.218259,-0.0257 -0.436553,-0.0511 -0.654859,-0.0764 -0.157827,0.13549 -0.315704,0.27093 -0.473501,0.40646 z"
         id="path54915"
         d="m 43.603128,157.91247 -0.160592,0.18798 -0.271466,0.11413 -0.132752,0.14144 -0.06611,0.072 -0.153712,0.10963 -0.134384,0.10632 0.05731,0.14168 -0.12616,0.006 0.08945,0.0222 0.117824,0.0137 0.205859,-0.0315 0.173964,-0.0366 0.192576,0.005 0.196362,-0.0332 0.20374,-0.17617 0.209009,-0.12512 0.173507,-0.10144 0.143171,-0.10273 0.182985,-0.10837 0.04709,-0.1385 0.05705,-0.0903 0.0292,-0.10757 0.0065,-0.0816 0.02336,-0.0891 -0.01463,-0.0751 -0.05429,-0.10328 0.01479,0.0309 -0.08319,0.0255 -0.04145,-0.006 -0.103464,-0.0476 -0.08001,-0.0641 -0.121097,0.0893 -0.08008,-0.008 -0.0625,0.0187 -0.0094,0.0497 -0.07035,0.0423 -0.167725,0.12193 -0.02732,0.0313 -0.08865,0.083 z"
         inkscape:connector-curvature="0"
         transform="matrix(1.5951833,-0.60815887,0.7090323,1.8597714,-94.318598,-103.26006)" />
      <path
         style="display:inline;opacity:1;fill:#ffffff;fill-opacity:1;stroke:#ffffff;stroke-width:0.264583px;stroke-linecap:butt;stroke-linejoin:miter;stroke-opacity:1"
         d="m 47.843655,156.7247 0.07037,0.21701 -0.0188,0.01 0.09883,0.27967 0.09749,0.14214 0.04599,0.19088 0.0025,0.23389 0.02261,0.29407 -0.122262,-0.0179 -0.02102,-0.0796 -0.07439,-0.058 -0.03897,-0.16569 -0.03611,-0.0769 -0.02013,0.0932 -0.0507,-0.0169 -0.0817,-0.34403 -0.1466,-0.3396 -0.125723,-0.28195 -0.0367,-0.16663 0.11625,-0.0208 0.08387,-0.0648 0.116646,0.0877 0.05735,0.0113 0.02475,0.0495 z"
         id="path54917"
         inkscape:connector-curvature="0"
         inkscape:path-effect="#path-effect5726;#path-effect5728"
         inkscape:original-d="m 47.809462,156.67136 c 0.0688,0.10374 0.154192,0.19857 0.205622,0.31202 0.07762,0.28081 0.15498,0.56188 0.232074,0.84322 -0.08106,0.10019 -0.162009,0.20019 -0.24396,0.30136 -0.04638,-0.1567 -0.119917,-0.40333 -0.139307,-0.46721 2.65e-4,-2.6e-4 2.65e-4,-2.6e-4 0,0 -0.24809,-0.47784 -0.848478,-0.79455 -0.585406,-1.12572 0.177257,0.0452 0.354249,0.0906 0.530977,0.13633 2.65e-4,-2.6e-4 2.65e-4,-2.6e-4 0,0 z"
         sodipodi:nodetypes="caccccaac"
         transform="matrix(2.374493,-0.01053693,0.29866725,2.1508566,-84.671218,-173.98725)" />
    </g>
  </g>
  <g
     transform="translate(10.637436,-141.4082)"
     style="display:inline;opacity:1"
     inkscape:label="Drill &amp; Drill lines"
     id="g6477"
     inkscape:groupmode="layer">
    <path
       sodipodi:nodetypes="ccacc"
       inkscape:connector-curvature="0"
       id="rect8623"
       d="m 8.582704,144.67441 2.052999,0.2425 c 0,0 -0.894277,1.15843 -1.617337,1.52481 -0.23382,0.11848 -0.81511,0.18495 -0.81511,0.18495 z"
       style="fill:#ffffff;fill-opacity:1;stroke:none;stroke-width:4.78488;stroke-linecap:butt;stroke-linejoin:miter;stroke-miterlimit:4;stroke-dasharray:none;stroke-dashoffset:0;stroke-opacity:1;paint-order:stroke markers fill" />
    <path
       style="fill:#ffffff;fill-opacity:1;stroke:none;stroke-width:4.78488;stroke-linecap:butt;stroke-linejoin:miter;stroke-miterlimit:4;stroke-dasharray:none;stroke-dashoffset:0;stroke-opacity:1;paint-order:stroke markers fill"
       d="m 7.034934,151.96702 2.052999,0.2425 c 0,0 -0.894277,1.15843 -1.617337,1.52481 -0.23382,0.11848 -0.81511,0.18495 -0.81511,0.18495 z"
       id="path8626"
       inkscape:connector-curvature="0"
       sodipodi:nodetypes="ccacc" />
    <path
       sodipodi:nodetypes="ccacc"
       inkscape:connector-curvature="0"
       id="path8628"
       d="m 4.589602,158.55752 2.052999,0.24251 c 0,0 -0.894277,1.15843 -1.617337,1.52481 -0.23382,0.11848 -0.81511,0.18495 -0.81511,0.18495 z"
       style="fill:#ffffff;fill-opacity:1;stroke:none;stroke-width:4.78488;stroke-linecap:butt;stroke-linejoin:miter;stroke-miterlimit:4;stroke-dasharray:none;stroke-dashoffset:0;stroke-opacity:1;paint-order:stroke markers fill" />
    <path
       style="fill:#ffffff;fill-opacity:1;stroke:none;stroke-width:4.78488;stroke-linecap:butt;stroke-linejoin:miter;stroke-miterlimit:4;stroke-dasharray:none;stroke-dashoffset:0;stroke-opacity:1;paint-order:stroke markers fill"
       d="m -2.322855,150.10458 -4.080722,-0.77894 c 0,0 0.567793,-0.8961 1.078607,-1.19179 0.211501,-0.12243 0.759365,-0.20465 0.759365,-0.20465 z"
       id="path8636"
       inkscape:connector-curvature="0"
       sodipodi:nodetypes="ccacc" />
    <path
       sodipodi:nodetypes="ccacc"
       inkscape:connector-curvature="0"
       id="path8638"
       d="m -0.640916,156.69127 -4.080722,-0.77894 c 0,0 0.567793,-0.8961 1.078607,-1.19179 0.211501,-0.12243 0.759365,-0.20465 0.759365,-0.20465 z"
       style="fill:#ffffff;fill-opacity:1;stroke:none;stroke-width:4.78488;stroke-linecap:butt;stroke-linejoin:miter;stroke-miterlimit:4;stroke-dasharray:none;stroke-dashoffset:0;stroke-opacity:1;paint-order:stroke markers fill" />
    <path
       style="fill:#ffffff;fill-opacity:1;stroke:none;stroke-width:4.78488;stroke-linecap:butt;stroke-linejoin:miter;stroke-miterlimit:4;stroke-dasharray:none;stroke-dashoffset:0;stroke-opacity:1;paint-order:stroke markers fill"
       d="m 1.744065,162.24207 -4.080722,-0.77894 c 0,0 0.567792,-0.89609 1.078606,-1.19178 0.211502,-0.12244 0.759366,-0.20465 0.759366,-0.20465 z"
       id="path8640"
       inkscape:connector-curvature="0"
       sodipodi:nodetypes="ccacc" />
    <path
       sodipodi:nodetypes="cccc"
       id="path6467"
       d="M 1.815144,165.15534 C -2.181341,157.98348 -4.785284,149.9496 -5.637401,141.4082 h 14.90509 c -0.852117,8.5414 -3.456061,16.57528 -7.452545,23.74714 z"
       style="display:inline;fill:#ffffff;fill-opacity:1;stroke:none;stroke-width:0;stroke-linecap:round;stroke-linejoin:miter;stroke-miterlimit:4;stroke-dasharray:none;stroke-dashoffset:0;stroke-opacity:1;paint-order:stroke markers fill"
       inkscape:connector-curvature="0" />
    <g
       style="fill:#ffffff;fill-opacity:1;stroke:#ffffff;stroke-opacity:1"
       transform="matrix(1.3989962,0,0,1.0228353,-83.027245,-6.2313724)"
       id="g6475"
       clip-path="url(#clipPath7005)">
      <path
         id="path6469"
         d="m 55.674606,152.34119 c 3.489894,-1.0651 6.979473,-2.1301 10.468731,-3.195"
         style="display:inline;fill:#ffffff;fill-opacity:1;stroke:#ffffff;stroke-width:1.80399;stroke-linecap:butt;stroke-linejoin:miter;stroke-miterlimit:4;stroke-dasharray:none;stroke-opacity:1"
         inkscape:connector-curvature="0"
         transform="matrix(0.78940433,0,0,0.76293581,13.095203,41.721626)" />
      <path
         id="path6471"
         d="m 55.674606,152.34119 c 3.489894,-1.0651 6.979473,-2.1301 10.468731,-3.195"
         style="display:inline;fill:#ffffff;fill-opacity:1;stroke:#ffffff;stroke-width:1.30033;stroke-linecap:butt;stroke-linejoin:miter;stroke-miterlimit:4;stroke-dasharray:none;stroke-opacity:1"
         inkscape:connector-curvature="0"
         transform="matrix(1.0951679,0,0,1.0584472,-6.5718268,3.4149516)" />
      <path
         id="path6473"
         d="m 55.674606,152.34119 c 3.489894,-1.0651 6.979473,-2.1301 10.468731,-3.195"
         clip-path="none"
         style="fill:#ffffff;fill-opacity:1;stroke:#ffffff;stroke-width:1.41251;stroke-linecap:butt;stroke-linejoin:miter;stroke-miterlimit:4;stroke-dasharray:none;stroke-opacity:1"
         inkscape:connector-curvature="0"
         transform="matrix(1.0081926,0,0,0.97438807,-0.4948626,3.1287514)" />
    </g>
  </g>
</svg>
